# AST/ASF file generated using VICON BodyLanguage
# -----------------------------------------------
:version 1.10
:name VICON
:units
  mass 1.0
  length 0.45
  angle deg
:documentation
   .ast/.asf automatically generated from VICON data using
   VICON BodyBuilder and BodyLanguage model FoxedUp or BRILLIANT.MOD
:root
   order TX TY TZ RX RY RZ
   axis XYZ
   position 0 0 0  
   orientation 0 0 0 
:bonedata
  begin
     id 1 
     name lhipjoint
     direction 0.645893 -0.654526 0.392961 
     length 2.38111 
     axis 0 0 0  XYZ
  end
  begin
     id 2 
     name lfemur
     direction 0.34202 -0.939693 0  
     length 6.6822  
     axis 0 0 20  XYZ
    dof rx ry rz
    limits (-160.0 20.0)
           (-70.0 70.0)
           (-60.0 70.0)
  end
  begin
     id 3 
     name ltibia
     direction 0.34202 -0.939693 0   
     length 6.93904   
     axis 0 0 20   XYZ
    dof rx
    limits (-10.0 170.0)
  end
  begin
     id 4 
     name lfoot
     direction 0.0694967 -0.190941 0.979138   
     length 2.13616   
     axis -90 7.62852e-016 20   XYZ
    dof rx rz
    limits (-45.0 90.0)
           (-70.0 20.0)
  end
  begin
     id 5 
     name ltoes
     direction 1.535e-011 -4.2202e-011 1   
     length 1.07536   
     axis -90 7.62852e-016 20   XYZ
    dof rx
    limits (-90.0 20.0)
  end
  begin
     id 6 
     name rhipjoint
     direction -0.700219 -0.612087 0.367481   
     length 2.54621  
     axis 0 0 0  XYZ 
  end
  begin
     id 7 
     name rfemur
     direction -0.34202 -0.939693 0   
     length 6.55353   
     axis 0 0 -20   XYZ
    dof rx ry rz
    limits (-160.0 20.0)
           (-70.0 70.0)
           (-70.0 60.0)
  end
  begin
     id 8 
     name rtibia
     direction -0.34202 -0.939693 0   
     length 6.8736   
     axis 0 0 -20   XYZ
    dof rx
    limits (-10.0 170.0)
 end
 begin
     id 9 
     name rfoot
     direction -0.0679995 -0.186827 0.980037   
     length 2.1218  
     axis -90 -7.62852e-016 -20   XYZ
    dof rx rz
    limits (-45.0 90.0)
           (-20.0 70.0)
  end
  begin
     id 10 
     name rtoes
     direction -1.53589e-011 -4.21772e-011 1   
     length 1.06864   
     axis -90 -7.62852e-016 -20   XYZ
    dof rx
    limits (-90.0 20.0)
  end
  begin
     id 11 
     name lowerback
     direction -0.0416607 0.996347 -0.0745409   
     length 2.12205   
     axis 0 0 0   XYZ
    dof rx ry rz
    limits (-20.0 45.0)
           (-30.0 30.0)
           (-30.0 30.0)
  end
  begin
     id 12 
     name upperback
     direction -0.000153993 0.999276 -0.0380568   
     length 2.12759   
     axis 0 0 0   XYZ
    dof rx ry rz
    limits (-20.0 45.0)
           (-30.0 30.0)
           (-30.0 30.0)
  end
  begin
     id 13 
     name thorax
     direction 0.0187671 0.999821 -0.00241421   
     length 2.13704   
     axis 0 0 0   XYZ
    dof rx ry rz
    limits (-20.0 45.0)
           (-30.0 30.0)
           (-30.0 30.0)
  end
  begin
     id 14 
     name lowerneck
     direction 0.0268157 0.964865 0.261374   
     length 1.65253   
     axis 0 0 0   XYZ
    dof rx ry rz
    limits (-20.0 45.0)
           (-30.0 30.0)
           (-30.0 30.0)
  end
  begin
     id 15 
     name upperneck
     direction 0.00263774 0.939908 -0.341418   
     length 1.72375   
     axis 0 0 0   XYZ
    dof rx ry rz
    limits (-20.0 45.0)
           (-30.0 30.0)
           (-30.0 30.0)
  end
  begin
     id 16
     name head
     direction -0.00526001 0.989001 -0.147818  
     length 1.74878  
     axis 0 0 0   XYZ
    dof rx ry rz
    limits (-20.0 45.0)
           (-30.0 30.0)
           (-30.0 30.0)
  end
  begin
     id 17 
     name lclavicle
     direction 0.881214 0.461162 -0.103884  
     length 3.25108  
     axis 0 0 0   XYZ
    dof ry rz
    limits (-20.0 10.0)
           (0.0 20.0)
  end
  begin
     id 18 
     name lhumerus
     direction 1 -4.4899e-011 3.38092e-027   
     length 4.87408   
     axis 180 -30 -90   XYZ
    dof rx ry rz
    limits (-60.0 90.0)
           (-90.0 90.0)
           (-90.0 90.0)
  end
  begin
     id 19
     name lradius
     direction 1 -4.48931e-011 9.96288e-027   
     length 2.76729   
     axis 180 -30 -90   XYZ
    dof rx
    limits (-10.0 170.0)
  end
  begin
     id 20
     name lwrist
     direction 1 -4.4896e-011 1.50617e-026   
     length 1.38364   
     axis -9.31234e-015 90 90   XYZ
    dof ry
    limits (-180.0 0.0)
 end
  begin
     id 21 
     name lhand
     direction 1 -4.49038e-011 3.01286e-026   
     length 0.98922   
     axis -1.92217e-014 90 90   XYZ
    dof rx rz
    limits (-90.0 90.0)
           (-45.0 45.0)
  end
  begin
     id 22 
     name lfingers
     direction 1 -4.49051e-011 6.02588e-026   
     length 0.797535   
     axis -3.84436e-014 90 90   XYZ
    dof rx
    limits (0.0 90.0)
  end
  begin
     id 23
     name lthumb
     direction 0.707107 -6.34901e-011 0.707107   
     length 1.14511   
     axis -90 45 2.19363e-014   XYZ
    dof rx rz
    limits (-45.0 45.0)
           (-45.0 45.0)
  end
  begin
     id 24 
     name rclavicle
     direction -0.893894 0.441652 -0.0767889   
     length 3.29361  
     axis 0 0 0   XYZ 
    dof ry rz
    limits (-10.0 20.0)
           (-20.0 0.0)
  end
  begin
     id 25 
     name rhumerus
     direction -1 -4.48945e-011 8.0491e-028  
     length 4.71404   
     axis 180 30 90   XYZ
    dof rx ry rz
    limits (-90.0 60.0)
           (-90.0 90.0)
           (-90.0 90.0)
  end
  begin
     id 26 
     name rradius
     direction -1 -4.48986e-011 9.27795e-027   
     length 2.83468   
     axis 180 30 90   XYZ
    dof rx
    limits (-10.0 170.0)
  end
  begin
     id 27 
     name rwrist
     direction -1 -4.49029e-011 1.5064e-026   
     length 1.41734   
     axis -9.31234e-015 -90 -90   XYZ
    dof ry
    limits (-180.0 0.0)
  end
  begin
     id 28
     name rhand
     direction -1 -4.48857e-011 3.01165e-026   
     length 0.868195   
     axis -1.92217e-014 -90 -90   XYZ
    dof rx rz
    limits (-90.0 90.0)
           (-45.0 45.0)
  end
  begin
     id 29
     name rfingers
     direction -1 -4.49048e-011 6.02585e-026   
     length 0.699961   
     axis -3.84436e-014 -90 -90   XYZ
    dof rx
    limits (0.0 90.0)
  end
  begin
     id 30
     name rthumb
     direction -0.707107 -6.34854e-011 0.707107   
     length 1.00501   
     axis -90 -45 -2.19363e-014   XYZ
    dof rx rz
    limits (-45.0 45.0)
           (-45.0 45.0)
  end
:hierarchy
  begin
    root lhipjoint rhipjoint lowerback
    lhipjoint lfemur
    lfemur ltibia
    ltibia lfoot
    lfoot ltoes
    rhipjoint rfemur
    rfemur rtibia
    rtibia rfoot
    rfoot rtoes
    lowerback upperback
    upperback thorax
    thorax lowerneck lclavicle rclavicle
    lowerneck upperneck
    upperneck head
    lclavicle lhumerus
    lhumerus lradius
    lradius lwrist
    lwrist lhand lthumb
    lhand lfingers
    rclavicle rhumerus
    rhumerus rradius
    rradius rwrist
    rwrist rhand rthumb
    rhand rfingers
  end

#!OML:ASF H:\ManfredObstacles\Project 1\Capture day 2\Session 1\male.ASF
:FULLY-SPECIFIED
:DEGREES
84
root 1.02595 16.5152 4.396 -167.049 -1.81204 179.234
lowerback -3.89209 4.21566 -2.20761
upperback -0.802381 5.66574 -2.73176
thorax 1.41191 2.78619 -1.28626
lowerneck -36.5571 -4.78742 -5.79143
upperneck 39.2531 -9.26364 6.27664
head 24.6562 -3.84011 1.48221
rclavicle 5.54609e-014 -3.33958e-014
rhumerus -48.4449 24.1566 -100.907
rradius 103.073
rwrist 5.43
rhand -11.4226 -0.495523
rfingers 7.12502
rthumb 14.6133 -29.9607
lclavicle 5.54609e-014 -3.33958e-014
lhumerus -65.0801 -30.2299 95.5736
lradius 112.023
lwrist -19.0024
lhand -11.7247 2.6595
lfingers 7.12502
lthumb 14.3223 32.1455
rfemur 5.04452 1.11163 24.4196
rtibia 47.9647
rfoot 23.3048 -10.697
rtoes -24.5504
lfemur -36.5452 -5.4984 -19.7374
ltibia 26.5147
lfoot 9.38738 5.19891
ltoes -22.8125
85
root 1.01417 16.4189 3.98971 -167.44 -2.06064 178.909
lowerback -3.65929 3.91679 -2.5496
upperback -0.641516 5.27475 -2.74145
thorax 1.41391 2.588 -1.13777
lowerneck -36.5066 -4.63108 -5.67508
upperneck 39.2356 -9.15317 6.36603
head 24.6095 -3.77871 1.54603
rclavicle 2.8625e-014 -7.55382e-015
rhumerus -48.9626 23.028 -100.757
rradius 102.014
rwrist 5.58177
rhand -11.6286 -0.980653
rfingers 7.12502
rthumb 14.4149 -30.4601
lclavicle 2.8625e-014 -7.55382e-015
lhumerus -64.1325 -30.5669 95.9035
lradius 111.675
lwrist -18.5302
lhand -12.0551 2.76708
lfingers 7.12502
lthumb 14.0039 32.2754
rfemur 3.91142 0.101226 23.6914
rtibia 51.8535
rfoot 22.2736 -11.2308
rtoes -24.548
lfemur -35.3974 -4.84792 -20.918
ltibia 27.4655
lfoot 8.77809 5.77912
ltoes -16.537
86
root 1.00159 16.3161 3.58715 -167.809 -2.30103 178.581
lowerback -3.398 3.60691 -2.88158
upperback -0.496207 4.8641 -2.76157
thorax 1.38989 2.3794 -1.00648
lowerneck -36.5073 -4.4444 -5.50315
upperneck 39.2319 -9.01635 6.43073
head 24.5818 -3.70064 1.59354
rclavicle 2.68359e-015 -2.74323e-014
rhumerus -49.5126 21.774 -100.568
rradius 100.93
rwrist 5.71613
rhand -11.803 -1.46695
rfingers 7.12502
rthumb 14.2468 -30.9583
lclavicle 2.68359e-015 -2.74323e-014
lhumerus -63.1062 -30.9018 96.2074
lradius 111.301
lwrist -18.0564
lhand -12.3653 2.87176
lfingers 7.12502
lthumb 13.705 32.4005
rfemur 2.63575 -0.932275 22.8957
rtibia 55.7662
rfoot 21.2093 -11.9535
rtoes -24.2988
lfemur -34.224 -4.48573 -21.908
ltibia 28.7752
lfoot 7.74032 6.8522
ltoes -11.4895
87
root 0.988197 16.2089 3.18913 -168.161 -2.52241 178.251
lowerback -3.09807 3.29024 -3.21091
upperback -0.352209 4.43996 -2.78189
thorax 1.34727 2.16374 -0.877059
lowerneck -36.5392 -4.24772 -5.30894
upperneck 39.2226 -8.86409 6.48085
head 24.5538 -3.61337 1.6333
rclavicle -4.33351e-014 2.78299e-015
rhumerus -50.0754 20.42 -100.315
rradius 99.8345
rwrist 5.82652
rhand -11.9868 -1.91761
rfingers 7.12502
rthumb 14.0697 -31.4213
lclavicle -4.33351e-014 2.78299e-015
lhumerus -61.9465 -31.2153 96.4861
lradius 110.882
lwrist -17.6883
lhand -12.6554 2.99481
lfingers 7.12502
lthumb 13.4253 32.5422
rfemur 1.20712 -1.95281 22.049
rtibia 59.6851
rfoot 20.0413 -12.7973
rtoes -23.8887
lfemur -33.0521 -4.43541 -22.7144
ltibia 30.378
lfoot 6.25689 8.6683
ltoes -8.33041
88
root 0.974575 16.1001 2.79639 -168.499 -2.69973 177.923
lowerback -2.75183 2.97159 -3.54843
upperback -0.200565 4.00871 -2.79768
thorax 1.28994 1.94418 -0.737879
lowerneck -36.5849 -4.04166 -5.0771
upperneck 39.1518 -8.67589 6.50183
head 24.4601 -3.50554 1.66031
rclavicle -1.86858e-014 2.62396e-014
rhumerus -50.6701 18.9619 -99.9936
rradius 98.7617
rwrist 5.91082
rhand -12.199 -2.27725
rfingers 7.12502
rthumb 13.8652 -31.7951
lclavicle -1.86858e-014 2.62396e-014
lhumerus -60.625 -31.488 96.7446
lradius 110.393
lwrist -17.4723
lhand -12.959 3.12384
lfingers 7.12502
lthumb 13.1327 32.6903
rfemur -0.388354 -2.90423 21.1785
rtibia 63.5891
rfoot 18.7259 -13.709
rtoes -23.4368
lfemur -31.8894 -4.62746 -23.3764
ltibia 32.1603
lfoot 4.57349 10.8428
ltoes -6.76284
